<svg width="234" height="114" viewBox="0 0 234 114" fill="none" xmlns="http://www.w3.org/2000/svg">
<g clip-path="url(#clip0_113_2)">
<path fill-rule="evenodd" clip-rule="evenodd" d="M136.714 6H171.536V14.2714C169.351 13.8819 167.108 13.976 164.964 14.5472C162.82 15.1184 160.827 16.1528 159.126 17.5774C157.425 19.0021 156.056 20.7823 155.118 22.7929C154.179 24.8035 153.693 26.9954 153.693 29.2143C153.693 31.4332 154.179 33.6251 155.118 35.6357C156.056 37.6462 157.425 39.4265 159.126 40.8512C160.827 42.2758 162.82 43.3101 164.964 43.8813C167.108 44.4525 169.351 44.5467 171.536 44.1571V51.5357H157.2C156.338 51.5351 155.494 51.7842 154.77 52.253C154.046 52.7218 153.474 53.3902 153.121 54.1774C152.769 54.9647 152.653 55.837 152.786 56.689C152.919 57.541 153.296 58.3362 153.871 58.9786C154.675 59.8781 155.201 60.9909 155.387 62.1828C155.572 63.3748 155.408 64.5948 154.915 65.6958C154.423 66.7968 153.622 67.7317 152.61 68.3877C151.597 69.0437 150.417 69.3927 149.211 69.3927C148.004 69.3927 146.824 69.0437 145.812 68.3877C144.8 67.7317 143.999 66.7968 143.506 65.6958C143.013 64.5948 142.85 63.3748 143.035 62.1828C143.22 60.9909 143.746 59.8781 144.55 58.9786C145.125 58.3367 145.502 57.5421 145.635 56.6908C145.769 55.8394 145.653 54.9676 145.301 54.1807C144.95 53.3938 144.379 52.7253 143.656 52.256C142.933 51.7866 142.09 51.5365 141.229 51.5357H126V16.7143C126 13.8727 127.129 11.1475 129.138 9.13814C131.147 7.12882 133.873 6 136.714 6ZM126 60.4643V95.2857C126 98.1273 127.129 100.853 129.138 102.862C131.147 104.871 133.873 106 136.714 106H171.536V90.7714C171.535 89.9091 171.784 89.065 172.253 88.3412C172.722 87.6175 173.39 87.0449 174.177 86.6929C174.965 86.3408 175.837 86.2243 176.689 86.3574C177.541 86.4905 178.336 86.8675 178.979 87.4429C179.878 88.2465 180.991 88.7727 182.183 88.958C183.375 89.1432 184.595 88.9796 185.696 88.4869C186.797 87.9942 187.732 87.1934 188.388 86.1811C189.044 85.1688 189.393 83.9884 189.393 82.7821C189.393 81.5759 189.044 80.3955 188.388 79.3832C187.732 78.3709 186.797 77.5701 185.696 77.0774C184.595 76.5846 183.375 76.421 182.183 76.6063C180.991 76.7915 179.878 77.3178 178.979 78.1214C178.337 78.6964 177.542 79.0733 176.691 79.2066C175.839 79.3399 174.968 79.224 174.181 78.8728C173.394 78.5217 172.725 77.9503 172.256 77.2275C171.787 76.5048 171.536 75.6617 171.536 74.8V60.4643H164.157C164.547 62.6487 164.453 64.892 163.881 67.0361C163.31 69.1803 162.276 71.1731 160.851 72.8742C159.427 74.5754 157.646 75.9435 155.636 76.8822C153.625 77.821 151.433 78.3074 149.214 78.3074C146.995 78.3074 144.803 77.821 142.793 76.8822C140.782 75.9435 139.002 74.5754 137.577 72.8742C136.153 71.1731 135.118 69.1803 134.547 67.0361C133.976 64.892 133.882 62.6487 134.271 60.4643H126ZM180.464 60.4643V67.8429C182.649 67.4533 184.892 67.5475 187.036 68.1187C189.18 68.6899 191.173 69.7242 192.874 71.1488C194.575 72.5735 195.944 74.3538 196.882 76.3643C197.821 78.3749 198.307 80.5668 198.307 82.7857C198.307 85.0046 197.821 87.1965 196.882 89.2071C195.944 91.2176 194.575 92.998 192.874 94.4226C191.173 95.8472 189.18 96.8816 187.036 97.4528C184.892 98.0239 182.649 98.1181 180.464 97.7286V106H215.286C218.127 106 220.853 104.871 222.862 102.862C224.871 100.853 226 98.1273 226 95.2857V60.4643H210.771C209.909 60.4649 209.065 60.2158 208.341 59.747C207.617 59.2782 207.045 58.6098 206.693 57.8225C206.341 57.0353 206.224 56.163 206.357 55.311C206.49 54.459 206.868 53.6638 207.443 53.0214C208.247 52.1219 208.773 51.0091 208.958 49.8172C209.143 48.6252 208.98 47.4052 208.487 46.3042C207.994 45.2032 207.193 44.2683 206.181 43.6123C205.169 42.9563 203.988 42.6073 202.782 42.6073C201.576 42.6073 200.395 42.9563 199.383 43.6123C198.371 44.2683 197.57 45.2032 197.077 46.3042C196.585 47.4052 196.421 48.6252 196.606 49.8172C196.792 51.0091 197.318 52.1219 198.121 53.0214C198.696 53.6633 199.073 54.4579 199.207 55.3092C199.34 56.1606 199.224 57.0324 198.873 57.8193C198.522 58.6062 197.95 59.2747 197.228 59.744C196.505 60.2134 195.662 60.4635 194.8 60.4643H180.464Z" fill="white"/>
<path fill-rule="evenodd" clip-rule="evenodd" d="M226 52V16.8235C226 13.953 224.878 11.1999 222.881 9.17014C220.884 7.14033 218.176 6 215.352 6L180.746 6V21.3838C180.747 22.255 180.499 23.1077 180.034 23.8388C179.568 24.57 178.903 25.1483 178.121 25.504C177.339 25.8596 176.472 25.9773 175.625 25.8429C174.778 25.7084 173.988 25.3276 173.35 24.7464C172.456 23.9345 171.35 23.4029 170.165 23.2158C168.981 23.0286 167.768 23.1939 166.674 23.6917C165.58 24.1894 164.651 24.9984 163.999 26.021C163.347 27.0436 163 28.2361 163 29.4546C163 30.6731 163.347 31.8656 163.999 32.8882C164.651 33.9108 165.58 34.7198 166.674 35.2175C167.768 35.7153 168.981 35.8806 170.165 35.6934C171.35 35.5063 172.456 34.9747 173.35 34.1628C173.988 33.582 174.777 33.2013 175.623 33.0666C176.469 32.9319 177.336 33.049 178.118 33.4037C178.9 33.7585 179.564 34.3357 180.031 35.0658C180.497 35.7959 180.746 36.6476 180.746 37.5181V52H188.079C187.692 49.7933 187.786 47.5271 188.353 45.3611C188.921 43.1951 189.949 41.182 191.365 39.4635C192.781 37.745 194.55 36.3629 196.548 35.4147C198.546 34.4664 200.724 33.9749 202.93 33.9749C205.135 33.9749 207.313 34.4664 209.311 35.4147C211.309 36.3629 213.079 37.745 214.494 39.4635C215.91 41.182 216.938 43.1951 217.506 45.3611C218.073 47.5271 218.167 49.7933 217.78 52H226Z" fill="#FFFDFD"/>
<path d="M20.0799 48L15.7901 33.4545H20.1935L22.1822 42.4034H22.2958L24.6538 33.4545H28.1197L30.4776 42.4318H30.5913L32.5799 33.4545H36.9833L32.6935 48H28.9151L26.4435 39.875H26.3299L23.8583 48H20.0799ZM42.3047 48.1989C41.121 48.1989 40.1077 47.9645 39.2649 47.4957C38.4221 47.0223 37.7758 46.3641 37.326 45.5213C36.8762 44.6738 36.6513 43.6913 36.6513 42.5739C36.6513 41.4564 36.8762 40.4763 37.326 39.6335C37.7758 38.786 38.4221 38.1278 39.2649 37.6591C40.1077 37.1856 41.121 36.9489 42.3047 36.9489C43.4884 36.9489 44.5017 37.1856 45.3445 37.6591C46.1873 38.1278 46.8336 38.786 47.2834 39.6335C47.7332 40.4763 47.9581 41.4564 47.9581 42.5739C47.9581 43.6913 47.7332 44.6738 47.2834 45.5213C46.8336 46.3641 46.1873 47.0223 45.3445 47.4957C44.5017 47.9645 43.4884 48.1989 42.3047 48.1989ZM42.3331 45.3011C42.6645 45.3011 42.951 45.1899 43.1925 44.9673C43.4339 44.7448 43.621 44.4276 43.7536 44.0156C43.8861 43.6037 43.9524 43.1136 43.9524 42.5455C43.9524 41.9725 43.8861 41.4825 43.7536 41.0753C43.621 40.6634 43.4339 40.3461 43.1925 40.1236C42.951 39.901 42.6645 39.7898 42.3331 39.7898C41.9827 39.7898 41.6821 39.901 41.4311 40.1236C41.1802 40.3461 40.9884 40.6634 40.8558 41.0753C40.7232 41.4825 40.657 41.9725 40.657 42.5455C40.657 43.1136 40.7232 43.6037 40.8558 44.0156C40.9884 44.4276 41.1802 44.7448 41.4311 44.9673C41.6821 45.1899 41.9827 45.3011 42.3331 45.3011ZM49.549 48V37.0909H53.3558V39.1648H53.4695C53.6683 38.3977 53.9832 37.8366 54.4141 37.4815C54.8497 37.1264 55.3587 36.9489 55.9411 36.9489C56.1115 36.9489 56.2796 36.9631 56.4453 36.9915C56.6158 37.0152 56.7791 37.0507 56.9354 37.098V40.4432C56.7412 40.3769 56.5021 40.3272 56.218 40.294C55.9339 40.2609 55.6901 40.2443 55.4865 40.2443C55.103 40.2443 54.7573 40.3319 54.4496 40.5071C54.1465 40.6776 53.9074 40.919 53.7322 41.2315C53.5571 41.5393 53.4695 41.9015 53.4695 42.3182V48H49.549ZM62.1413 33.4545V48H58.2209V33.4545H62.1413ZM68.0877 48.142C67.3112 48.142 66.5962 47.9384 65.9428 47.5312C65.2942 47.1241 64.7733 46.5062 64.3803 45.6776C63.9921 44.849 63.7979 43.8049 63.7979 42.5455C63.7979 41.2292 64.0015 40.1591 64.4087 39.3352C64.8207 38.5114 65.351 37.9077 65.9996 37.5241C66.6531 37.1406 67.3396 36.9489 68.0593 36.9489C68.5991 36.9489 69.0726 37.0436 69.4798 37.233C69.887 37.4176 70.2279 37.6662 70.5025 37.9787C70.7771 38.2865 70.9854 38.625 71.1275 38.9943H71.1843V33.4545H75.1048V48H71.2127V46.2102H71.1275C70.976 46.5795 70.7582 46.911 70.4741 47.2045C70.1947 47.4934 69.8538 47.723 69.4513 47.8935C69.0536 48.0592 68.5991 48.142 68.0877 48.142ZM69.5366 45.1307C69.8964 45.1307 70.2042 45.0265 70.4599 44.8182C70.7203 44.6051 70.9192 44.3068 71.0565 43.9233C71.1985 43.535 71.2695 43.0758 71.2695 42.5455C71.2695 42.0057 71.1985 41.544 71.0565 41.1605C70.9192 40.7723 70.7203 40.4763 70.4599 40.2727C70.2042 40.0644 69.8964 39.9602 69.5366 39.9602C69.1767 39.9602 68.869 40.0644 68.6133 40.2727C68.3623 40.4763 68.1682 40.7723 68.0309 41.1605C67.8983 41.544 67.832 42.0057 67.832 42.5455C67.832 43.0852 67.8983 43.5492 68.0309 43.9375C68.1682 44.321 68.3623 44.617 68.6133 44.8253C68.869 45.0289 69.1767 45.1307 69.5366 45.1307ZM86.2695 48.1989C85.0858 48.1989 84.0726 47.9645 83.2298 47.4957C82.387 47.0223 81.7406 46.3641 81.2908 45.5213C80.841 44.6738 80.6161 43.6913 80.6161 42.5739C80.6161 41.4564 80.841 40.4763 81.2908 39.6335C81.7406 38.786 82.387 38.1278 83.2298 37.6591C84.0726 37.1856 85.0858 36.9489 86.2695 36.9489C87.4532 36.9489 88.4665 37.1856 89.3093 37.6591C90.1521 38.1278 90.7984 38.786 91.2482 39.6335C91.698 40.4763 91.9229 41.4564 91.9229 42.5739C91.9229 43.6913 91.698 44.6738 91.2482 45.5213C90.7984 46.3641 90.1521 47.0223 89.3093 47.4957C88.4665 47.9645 87.4532 48.1989 86.2695 48.1989ZM86.2979 45.3011C86.6294 45.3011 86.9158 45.1899 87.1573 44.9673C87.3988 44.7448 87.5858 44.4276 87.7184 44.0156C87.851 43.6037 87.9173 43.1136 87.9173 42.5455C87.9173 41.9725 87.851 41.4825 87.7184 41.0753C87.5858 40.6634 87.3988 40.3461 87.1573 40.1236C86.9158 39.901 86.6294 39.7898 86.2979 39.7898C85.9476 39.7898 85.6469 39.901 85.396 40.1236C85.145 40.3461 84.9532 40.6634 84.8207 41.0753C84.6881 41.4825 84.6218 41.9725 84.6218 42.5455C84.6218 43.1136 84.6881 43.6037 84.8207 44.0156C84.9532 44.4276 85.145 44.7448 85.396 44.9673C85.6469 45.1899 85.9476 45.3011 86.2979 45.3011ZM100.048 37.0909V39.9318H92.7468V37.0909H100.048ZM94.1388 48V36.7784C94.1388 35.8788 94.2998 35.133 94.6218 34.5412C94.9438 33.9493 95.3983 33.5066 95.9854 33.2131C96.5726 32.9195 97.2638 32.7727 98.0593 32.7727C98.5565 32.7727 99.0394 32.8106 99.5082 32.8864C99.9817 32.9621 100.332 33.0284 100.559 33.0852L99.9911 35.8977C99.8491 35.8551 99.6834 35.822 99.494 35.7983C99.3046 35.7699 99.1388 35.7557 98.9968 35.7557C98.6275 35.7557 98.3789 35.8338 98.2511 35.9901C98.1232 36.1463 98.0593 36.3523 98.0593 36.608V48H94.1388ZM28.4499 76.0909V70.2102H28.3931C28.2416 70.5795 28.0238 70.911 27.7397 71.2045C27.4603 71.4934 27.1194 71.723 26.717 71.8935C26.3192 72.0592 25.8647 72.142 25.3533 72.142C24.5768 72.142 23.8619 71.9384 23.2085 71.5312C22.5598 71.1241 22.0389 70.5062 21.646 69.6776C21.2577 68.849 21.0636 67.8049 21.0636 66.5455C21.0636 65.2292 21.2672 64.1591 21.6744 63.3352C22.0863 62.5114 22.6166 61.9077 23.2653 61.5241C23.9187 61.1406 24.6052 60.9489 25.3249 60.9489C25.8647 60.9489 26.3382 61.0436 26.7454 61.233C27.1526 61.4176 27.4935 61.6662 27.7681 61.9787C28.0427 62.2865 28.2511 62.625 28.3931 62.9943H28.4783V61.0909H32.3704V76.0909H28.4499ZM26.8022 69.1307C27.1621 69.1307 27.4698 69.0265 27.7255 68.8182C27.9859 68.6051 28.1848 68.3068 28.3221 67.9233C28.4641 67.535 28.5352 67.0758 28.5352 66.5455C28.5352 66.0057 28.4641 65.544 28.3221 65.1605C28.1848 64.7723 27.9859 64.4763 27.7255 64.2727C27.4698 64.0644 27.1621 63.9602 26.8022 63.9602C26.4424 63.9602 26.1346 64.0644 25.8789 64.2727C25.628 64.4763 25.4338 64.7723 25.2965 65.1605C25.1639 65.544 25.0977 66.0057 25.0977 66.5455C25.0977 67.0852 25.1639 67.5492 25.2965 67.9375C25.4338 68.321 25.628 68.617 25.8789 68.8253C26.1346 69.0289 26.4424 69.1307 26.8022 69.1307ZM41.4276 67.2273V61.0909H45.348V72H41.6264V69.9261H41.5128C41.276 70.6222 40.8617 71.1667 40.2699 71.5597C39.678 71.9479 38.9749 72.142 38.1605 72.142C37.3982 72.142 36.7306 71.9669 36.1577 71.6165C35.5895 71.2661 35.1468 70.7831 34.8295 70.1676C34.517 69.5521 34.3584 68.8466 34.3537 68.0511V61.0909H38.2741V67.2273C38.2789 67.767 38.4162 68.1908 38.6861 68.4986C38.9607 68.8063 39.3442 68.9602 39.8366 68.9602C40.1634 68.9602 40.4451 68.8916 40.6818 68.7543C40.9233 68.6122 41.108 68.4134 41.2358 68.1577C41.3684 67.8973 41.4323 67.5871 41.4276 67.2273ZM47.342 72V61.0909H51.2624V72H47.342ZM49.3022 59.9545C48.7719 59.9545 48.3174 59.7794 47.9386 59.429C47.5598 59.0786 47.3704 58.6572 47.3704 58.1648C47.3704 57.6723 47.5598 57.2509 47.9386 56.9006C48.3174 56.5502 48.7719 56.375 49.3022 56.375C49.8372 56.375 50.2918 56.5502 50.6658 56.9006C51.0446 57.2509 51.234 57.6723 51.234 58.1648C51.234 58.6572 51.0446 59.0786 50.6658 59.429C50.2918 59.7794 49.8372 59.9545 49.3022 59.9545ZM53.3736 72V69.8409L58.1463 64.1307V64.0739H53.544V61.0909H62.777V63.4773L58.4304 68.9602V69.017H62.9474V72H53.3736ZM65.229 72V69.8409L70.0018 64.1307V64.0739H65.3995V61.0909H74.6325V63.4773L70.2859 68.9602V69.017H74.8029V72H65.229ZM81.8857 72.1989C80.7209 72.1989 79.7171 71.9763 78.8743 71.5312C78.0362 71.0814 77.3899 70.4375 76.9354 69.5994C76.4856 68.7566 76.2607 67.7481 76.2607 66.5739C76.2607 65.447 76.4879 64.4621 76.9425 63.6193C77.397 62.7765 78.0386 62.1207 78.8672 61.652C79.6958 61.1832 80.6735 60.9489 81.8004 60.9489C82.6243 60.9489 83.37 61.0767 84.0376 61.3324C84.7053 61.5881 85.2758 61.9598 85.7493 62.4474C86.2228 62.9304 86.5874 63.5175 86.843 64.2088C87.0987 64.9001 87.2266 65.679 87.2266 66.5455V67.4545H77.4822V65.2955H83.6186C83.6139 64.983 83.5334 64.7083 83.3771 64.4716C83.2256 64.2301 83.0196 64.0431 82.7592 63.9105C82.5036 63.7732 82.2124 63.7045 81.8857 63.7045C81.5684 63.7045 81.2772 63.7732 81.0121 63.9105C80.7469 64.0431 80.5339 64.2277 80.3729 64.4645C80.2166 64.7012 80.1338 64.9782 80.1243 65.2955V67.625C80.1243 67.9754 80.1977 68.2879 80.3445 68.5625C80.4912 68.8371 80.7019 69.0526 80.9766 69.2088C81.2512 69.3651 81.5826 69.4432 81.9709 69.4432C82.2408 69.4432 82.487 69.4053 82.7095 69.3295C82.9368 69.2538 83.1309 69.1449 83.2919 69.0028C83.4529 68.8561 83.5713 68.6809 83.647 68.4773H87.2266C87.1035 69.2348 86.8123 69.893 86.353 70.4517C85.8937 71.0057 85.2853 71.4366 84.5277 71.7443C83.7749 72.0473 82.8942 72.1989 81.8857 72.1989ZM98.7979 64.642H95.19C95.171 64.4195 95.0929 64.2277 94.9556 64.0668C94.8183 63.9058 94.6407 63.7827 94.4229 63.6974C94.2099 63.6075 93.9731 63.5625 93.7127 63.5625C93.3765 63.5625 93.0877 63.6241 92.8462 63.7472C92.6048 63.8703 92.4864 64.0455 92.4911 64.2727C92.4864 64.4337 92.555 64.5829 92.6971 64.7202C92.8439 64.8575 93.1256 64.964 93.5423 65.0398L95.7582 65.4375C96.8756 65.6411 97.7066 65.9844 98.2511 66.4673C98.8003 66.9455 99.0773 67.5871 99.082 68.392C99.0773 69.1686 98.8453 69.8433 98.386 70.4162C97.9315 70.9844 97.3088 71.4247 96.5181 71.7372C95.7321 72.045 94.8349 72.1989 93.8263 72.1989C92.1597 72.1989 90.8552 71.858 89.913 71.1761C88.9755 70.4943 88.4523 69.5947 88.3434 68.4773H92.2354C92.2875 68.8229 92.458 69.0904 92.7468 69.2798C93.0404 69.4645 93.4097 69.5568 93.8548 69.5568C94.2146 69.5568 94.5105 69.4953 94.7425 69.3722C94.9793 69.2491 95.1 69.0739 95.1048 68.8466C95.1 68.6383 94.9959 68.4725 94.7923 68.3494C94.5934 68.2263 94.2809 68.1269 93.8548 68.0511L91.9229 67.7102C90.8103 67.5161 89.9769 67.1468 89.4229 66.6023C88.869 66.0578 88.5943 65.357 88.5991 64.5C88.5943 63.7424 88.7932 63.1009 89.1957 62.5753C89.6029 62.045 90.1829 61.6425 90.9357 61.3679C91.6933 61.0885 92.5906 60.9489 93.6275 60.9489C95.2042 60.9489 96.4471 61.2756 97.3562 61.929C98.27 62.5824 98.7506 63.4867 98.7979 64.642Z" fill="#FFFBFB"/>
</g>
<defs>
<clipPath id="clip0_113_2">
<rect width="234" height="114" fill="white"/>
</clipPath>
</defs>
</svg>
